<svg width="159" height="253" viewBox="0 0 159 253" fill="none" xmlns="http://www.w3.org/2000/svg">
<path d="M34.2462 0C40.5507 0 45.6615 5.11551 45.6615 11.4258V116.641C46.9278 116.157 48.302 115.89 49.7385 115.89H108.446C110.197 115.89 111.856 116.285 113.338 116.99V11.4258C113.338 5.11551 118.449 0 124.754 0H147.585C153.889 0 159 5.11551 159 11.4258V241.574C159 247.884 153.889 253 147.585 253H124.754C118.449 253 113.338 247.884 113.338 241.574V137.642C111.856 138.347 110.197 138.742 108.446 138.742H49.7385C48.3019 138.742 46.9278 138.475 45.6615 137.99V241.574C45.6615 247.884 40.5507 253 34.2462 253H11.4154C5.11084 253 2.23275e-07 247.884 0 241.574V11.4258C2.25901e-06 5.11551 5.11084 0 11.4154 0H34.2462Z" fill="#1D544E"/>
</svg>
